# xmcd
#
# Track frame offsets:
#	150
#	19314
#	35782
#	48881
#	63026
#	75651
#	94644
#	111271
#	127463
#	139598
#	155875
#
# Disc length: 2240 seconds
#
# Revision: 1
# Processed by: cddbd v1.5.2PL0 Copyright (c) Steve Scherf et al.
# Submitted via: audiograbber 1.83.01
#
DISCID=9708be0b
DTITLE=Roto Noto - Essintials Roto Noto
DYEAR=1999
DGENRE=Country
TTITLE0=This Ttime Last Year - Sharon Difronzo
TTITLE1=Try To Belive - Ghost Rockets
TTITLE2=Love Will Surviive - Roe Mccaw
TTITLE3=Like Our Lovin - Lenny Paquette and Lauren Cook
TTITLE4=My Little Bit Of Everything - Mary Beth Sippin
TTITLE5=The Peggy´s Cove Disaster - Eddie Coffey
TTITLE6=Has Anybody Seen My Girl - Geoffrey Wickham
TTITLE7=Don´t Come Knocking - Lynne Wilson and The Rebels
TTITLE8=Heart Walking - The Bains
TTITLE9=Destination You - Michael Terry
TTITLE10=One More Second Chance - Randal Cousins
EXTD=
EXTT0=
EXTT1=
EXTT2=
EXTT3=
EXTT4=
EXTT5=
EXTT6=
EXTT7=
EXTT8=
EXTT9=
EXTT10=
PLAYORDER=
